<?xml version="1.0" encoding="UTF-8" standalone="no"?>
<!-- Created with Inkscape (http://www.inkscape.org/) -->

<svg
   width="500"
   height="300"
   viewBox="0 0 132.29166 79.375002"
   version="1.1"
   id="svg8"
   xmlns="http://www.w3.org/2000/svg"
   xmlns:svg="http://www.w3.org/2000/svg">
  <g
     id="layer2">
    <path
       id="path916-8-0"
       style="fill:none;fill-opacity:1;stroke:#333333;stroke-width:1.88976385;stroke-linecap:butt;stroke-linejoin:miter;stroke-opacity:1;stroke-miterlimit:4;stroke-dasharray:7.55905543,3.77952771;stroke-dashoffset:0"
       d="m 100.4668,6.9589844 c -14.831771,0 -20.632864,7.7279926 -22.605472,11.5859376 -10.470399,4.066299 -12.970703,10.138672 -12.970703,10.138672 l -6.443359,32.734375 a 74.917411,74.917411 0 0 0 -34.806641,63.212891 74.917411,74.917411 0 0 0 0.810547,10.92187 l -7.248047,104.99805 0.369141,0.10742 c -0.0833,1.02628 -0.13481,2.05452 -0.154297,3.08399 -2.64e-4,27.4858 22.281776,49.76785 49.767578,49.76758 19.996543,-2.7e-4 38.051063,-11.96861 45.837893,-30.38672 l 16.52344,-33.60938 a 49.983796,49.983796 0 0 0 43.45507,25.3086 49.983796,49.983796 0 0 0 49.95703,-49.24219 h 52.25196 a 49.983796,49.983796 0 0 0 49.91015,49.24219 49.983796,49.983796 0 0 0 43.3418,-25.54493 l 16.63867,33.84571 c 7.78685,18.41811 25.84136,30.38645 45.83789,30.38672 27.48579,2.7e-4 49.76589,-22.28178 49.76563,-49.76758 -0.0193,-1.02947 -0.0692,-2.05771 -0.15235,-3.08399 l 0.36915,-0.10742 -7.25586,-105.10937 a 74.917412,74.917412 0 0 0 0.8164,-10.81055 74.917412,74.917412 0 0 0 -34.75976,-62.988282 l -6.49024,-32.958984 c 0,0 -2.43161,-5.916877 -12.5625,-9.980469 -1.80526,-3.533579 -7.66787,-11.7441406 -23.18164,-11.7441406 -14.73807,0 -20.55801,7.6280776 -22.5664,11.5097656 -10.57965,3.949991 -13.31641,9.822266 -13.31641,9.822266 l -5.71875,31.46875 H 142.23828 l -5.71875,-31.46875 c 0,0 -2.66532,-5.723104 -12.91406,-9.669922 -1.85419,-3.57753 -7.74551,-11.6621096 -23.13867,-11.6621096 z"
       transform="scale(0.26458333)" />
  </g>
</svg>
